<svg width="55" height="55" viewBox="0 0 55 55" fill="none" xmlns="http://www.w3.org/2000/svg">
<path d="M22.3711 3.52539C23.7529 3.50218 25.6734 3.48658 27.8281 3.51758C32.0619 3.5785 37.4711 3.82013 41.4443 4.61719C43.0283 4.93507 44.466 6.48186 44.0947 8.43359L44.0527 8.62402C43.7199 9.96694 42.6854 10.7826 41.5547 11.0479C41.4811 11.4743 41.3959 11.9851 41.2891 12.5986C40.7148 15.8955 39.6006 22.2512 38.3643 27.6162C37.1219 33.0075 35.7994 37.2593 34.833 40.0156C33.8935 42.6953 33.282 44.0983 32.7266 45.0391C32.2405 45.8623 31.4642 47.2569 29.8115 48.3311C29.086 48.8026 27.9667 49.5787 26.6104 50.0391C25.0969 50.5528 23.4851 50.6379 21.6172 50.291C20.5456 50.092 19.3354 49.8114 18.2363 49.3701C17.272 48.9829 15.9694 48.3077 15.0752 47.0684L14.9023 46.8135C13.804 45.0857 12.3004 42.6172 12.5215 38.7422C12.5933 37.4834 12.7565 36.1754 13.792 31.5977C14.8431 26.9508 16.6997 19.3208 17.6543 14.6533C18.1528 12.216 18.3844 10.681 18.4961 9.69238C17.6055 9.17663 16.9176 8.26396 16.8613 7.02246V7.02051C16.7775 5.14286 18.1901 3.89685 19.6602 3.63379L19.877 3.56836L20.2119 3.57715C20.2164 3.57702 20.2207 3.57629 20.2246 3.57617C20.2435 3.57561 20.2623 3.5749 20.2832 3.57422C20.3856 3.5709 20.5376 3.56595 20.7324 3.56055C21.1208 3.54978 21.6801 3.537 22.3711 3.52539Z" fill="white" stroke="white" stroke-width="5" stroke-linecap="round"/>
<path d="M17.1931 32.0387C18.018 28.3919 18.2193 27.3039 18.7794 24.5139C19.0343 23.2442 20.1691 22.3451 21.4636 22.3826L32.6059 22.7061C34.2286 22.7532 35.4768 24.0443 35.1061 25.6247C35.0348 25.9287 34.9512 26.2882 34.8534 26.7129C33.6595 31.8938 32.3928 35.9625 31.4788 38.5692C30.5648 41.176 30.0473 42.3033 29.6712 42.9404C29.1738 43.7828 28.7432 44.5118 27.8419 45.0976C26.1759 46.1804 24.9808 47.0419 22.2601 46.5365C20.3193 46.176 18.5243 45.6328 17.864 44.5941C16.8735 43.036 15.8578 41.3259 16.0165 38.5466C16.0715 37.5826 16.1821 36.508 17.1931 32.0387Z" fill="#FB7185"/>
<path d="M20.2462 6.87693C20.2462 6.87693 33.4943 6.39109 40.7594 7.84858M22.0123 7.36271C22.0123 7.37518 22.0123 7.38765 21.994 8.19284C21.9757 8.99802 21.9392 10.5955 20.9773 15.299C20.0153 20.0025 18.129 27.7635 17.1011 32.3079C16.0731 36.8524 15.9607 37.9451 15.9047 38.9253C15.7434 41.7514 16.7761 43.4902 17.7833 45.0745C18.4548 46.1307 20.2799 46.6831 22.2534 47.0496C25.0198 47.5635 26.2351 46.6875 27.929 45.5865C28.8456 44.9909 29.2834 44.2496 29.7892 43.393C30.1716 42.7452 30.6978 41.5989 31.6271 38.9483C32.5565 36.2977 33.8445 32.1606 35.0585 26.8926C36.2725 21.6246 37.3733 15.351 37.9492 12.0451C38.525 8.73925 38.5424 8.59108 38.5604 8.3459" stroke="black" stroke-width="1.77653" stroke-linecap="round"/>
</svg>
