<svg width="55" height="55" viewBox="0 0 55 55" fill="none" xmlns="http://www.w3.org/2000/svg">
<path d="M31.8402 4.75391C34.0659 4.33748 36.3533 4.40139 38.3402 5.19141C40.3985 6.00988 42.0558 7.59041 42.7953 9.9209C44.7475 16.0732 47.1206 21.574 50.1371 29.8838C50.8771 31.9224 51.4581 33.6107 51.8539 35.0215C52.2452 36.4166 52.5003 37.6898 52.5003 38.8643C52.5003 40.1135 52.2121 41.2354 51.5746 42.2686C50.981 43.2303 50.1636 43.9811 49.3617 44.6309C48.173 45.5939 46.6642 46.1854 45.1615 46.5859C43.63 46.994 41.9036 47.2539 40.1312 47.4375C36.6568 47.7975 32.4953 47.9034 28.9564 48.1318C27.183 48.2463 25.3045 48.4712 23.3333 48.6992C21.3942 48.9236 19.3696 49.1501 17.4359 49.2393C13.7668 49.4084 9.52381 49.155 6.7142 46.4961C4.30915 44.22 3.19381 41.7447 3.29428 38.915C3.38568 36.3433 4.49205 33.7413 5.71225 31.1777C7.08872 28.2858 9.11039 25.676 11.3812 22.9043C13.6909 20.0852 16.3202 17.0271 19.2132 13.0342C22.5319 8.4538 27.3896 5.58672 31.8402 4.75391Z" fill="#BAE6FD" stroke="white" stroke-width="5" stroke-linejoin="round"/>
<path d="M20 29C20 29 27 32 27 32.5C27 33 20 35 20 35M42 29C42 29 36.5 32 36.5 32.5C36.5 33 41 35 41 35M26 40C26.121 39.9979 26.6692 39.8294 27.616 39.2304C28.0577 38.951 29.085 38.9414 29.93 39.1174C30.3944 39.2142 30.6508 39.4559 31.2893 39.5671C32.6818 39.8097 33.1582 39.3754 33.5905 39.237C33.8911 39.1407 35.1451 39.082 36.0289 39.1271C36.2839 39.1781 36.5001 39.232 36.6495 39.2783C36.7228 39.2984 36.791 39.3117 37 39.3448" stroke="#0369A1" stroke-width="2" stroke-linecap="round" stroke-linejoin="round"/>
</svg>
